<svg xmlns="http://www.w3.org/2000/svg" version="1.1" xmlns:xlink="http://www.w3.org/1999/xlink" xmlns:svgjs="http://svgjs.dev/svgjs" width="2000" height="2250" viewBox="0 0 2000 2250"><g transform="matrix(1,0,0,1,3.410605131648481e-13,0)"><svg viewBox="0 0 320 360" data-background-color="#ffffff" preserveAspectRatio="xMidYMid meet" height="2250" width="2000" xmlns="http://www.w3.org/2000/svg" xmlns:xlink="http://www.w3.org/1999/xlink"><g id="tight-bounds" transform="matrix(1,0,0,1,0,0)"><svg viewBox="0 0 320 360" height="360" width="320"><g><svg></svg></g><g><svg viewBox="0 0 320 360" height="360" width="320"><g><path xmlns="http://www.w3.org/2000/svg" d="M20.961 227.22l3.726 4.658-1.863-6.056c-0.466-2.795-3.726 0.466-1.863 1.398M25.153 224.425c1.397 2.329 2.795 4.658 2.795 6.987 0 3.261 2.795 4.658 5.123 5.589-3.261-3.726-5.124-13.974-7.918-12.576M204.017 26.929c7.918 0 15.371-0.932 23.756 0.931 20.495 5.124 37.729 15.371 49.374 29.811l32.606 52.169c1.397 13.042 4.192 27.482 3.726 43.319 3.261 0 2.795-4.658 6.521-5.59-3.726 9.316-5.59 20.961-6.521 34.469-2.329-7.453 0-18.632 0.466-24.687-3.261 5.124-5.124 1.397-5.124-0.932 0.466-3.726-1.397-3.261-2.795-4.658-5.124-4.658-8.384-9.782-12.11-17.7 2.329-6.055 2.795-14.905-4.658-19.563-2.329-1.397-5.124-3.726-6.521-7.453-1.863-5.124-5.124-11.179-4.193-19.097 0.466-2.329-6.987 5.124-11.179 1.863-18.166-12.576-36.332-27.016-58.224-39.127-11.645 0-20.029-4.192-24.221-9.316-3.726-4.658-0.932-10.713 4.658-11.179 3.261 0 6.987-0.932 9.782 0.932 0.466-1.863 2.329-4.192 4.657-4.192M157.904 16.215l0.932 0.466c4.658 0.932 6.987 7.453 12.11 5.124 0 3.261 0.466 6.521-0.466 8.85-1.397 3.726-5.59 3.726-8.85 3.726-31.208-1.863-49.374 11.179-68.471 22.358-5.124 3.261-10.713 5.59-14.906 9.782-20.029 18.632-41.921 35.866-47.045 70.335l-4.192 38.195c-0.466 4.192-5.124 8.384-4.192 13.508l3.26 22.824c-3.261-3.261-5.124 0.932-4.192 2.795 0.466 1.397 2.329 6.055 5.124 1.863 3.726 6.987 7.453 20.495 12.576 26.55 15.837 18.632 36.332 35.4 53.101 52.169 4.192-0.932 7.453-0.932 8.384-3.727 1.397 2.795-1.397 5.59-3.726 6.056 7.453 4.658 15.837 8.85 27.016 9.781 14.44 0.932 27.948 3.261 40.524 6.522 6.521-1.863 13.042-2.795 20.029-3.261 2.329 0 3.726-3.726 6.521-4.658l0.466-4.658c2.795 4.192 2.329-1.397 0.466-4.192 3.261 2.795 4.192 5.124 5.589 6.987 0-1.397 3.726-6.521 3.727-0.466l0.931-6.055c1.397-0.932 1.863 5.124 3.261 0.931 1.397-4.192 4.192-0.932 6.987-2.329-0.932 1.863-0.466 5.59 2.794 3.261l3.727-3.261c2.329 5.59 6.055 3.261 7.918 2.329 20.495-13.042 40.99-28.413 60.553-43.784l-0.466 6.055 2.329-7.453c2.329 2.329 4.192 0.466 5.124-0.931 2.795-4.658 6.521-9.316 12.577-13.508-7.453 20.029-16.303 35.866-27.482 48.908l-4.658 5.59c0 3.261-0.932 7.453-4.658 7.918-1.863 0.466-5.59-0.932-8.384 1.863-1.397 1.863 3.261 5.59-0.466 2.795-3.261-2.329-6.521 0-10.248 0.932-2.795 0.932 1.863 3.726 2.795 5.589 0.932 1.863 1.863 3.726 1.398 6.056l-5.124-5.59c-6.055 3.261-9.782 9.316-14.906 13.974-2.329 1.863-1.397 5.124-1.397 7.918-3.261 0-6.987-0.932-8.85 0.932-1.397 1.863-0.932 4.658-0.932 7.453-4.658-0.466-5.124-7.453-9.315-6.056-4.192 0.932-8.85 1.397-12.577 3.727 2.795 5.59-4.658 2.329-3.726 3.26-6.987-4.192-13.042-7.453-20.495-4.658-15.837-5.124-35.4-2.795-49.84-0.931 0-2.329 0.466-4.658-0.466-5.124-0.932 2.329-3.726 1.397-3.26 1.397-8.85-6.055-17.7-9.782-27.016-14.905-8.384 0.932-16.303-3.261-18.632-5.59-6.521-6.055-13.974-2.795-20.029-4.192-13.042-3.261-17.7-16.769-19.098-26.084-0.932-4.658-4.658-6.521-6.055-6.056-6.055-19.563-15.371-37.263-22.824-55.429-1.863-4.658-1.397-9.316-1.397-14.44 2.329 0.932 4.658 0.466 4.192-2.794-2.329-15.371-7.918-27.016-13.974-38.195 3.261-15.837 3.726-34.469 11.179-48.443 6.521-12.576 18.632-19.098 27.016-29.811 2.795-3.726 2.795-8.85 5.59-12.11 9.316-9.316 18.632-19.098 28.879-27.482 4.658-3.726 10.247 0 17.234-1.397 2.329-8.384 11.645-15.837 20.495-13.508 3.726 0.932 11.179-8.85 13.508-9.782 3.726-1.397 1.863 3.726 1.863 6.987 8.85-6.987 20.961-10.713 32.14-14.906" fill="#5e1914" fill-rule="nonzero" stroke="none" stroke-width="1" stroke-linecap="butt" stroke-linejoin="miter" stroke-miterlimit="10" stroke-dasharray="" stroke-dashoffset="0" font-family="none" font-weight="none" font-size="none" text-anchor="none" style="mix-blend-mode: normal" data-fill-palette-color="tertiary"></path></g><g transform="matrix(1,0,0,1,64,107.84395407384132)"><svg viewBox="0 0 192 144.31209185231737" height="144.31209185231737" width="192"><g><svg viewBox="0 0 192 144.31209185231737" height="144.31209185231737" width="192"><g><svg viewBox="0 0 192 144.31209185231737" height="144.31209185231737" width="192"><g transform="matrix(1,0,0,1,0,87.22489625137472)"><svg viewBox="0 0 192 57.08719560094266" height="57.08719560094266" width="192"><g><svg viewBox="0 0 192 57.08719560094266" height="57.08719560094266" width="192"><g><svg viewBox="0 0 192 57.08719560094266" height="57.08719560094266" width="192"><g transform="matrix(1,0,0,1,0,0)"><svg width="192" viewBox="0.20000000298023224 -37.400001525878906 127.29000091552734 37.85000228881836" height="57.08719560094266" data-palette-color="#5e1914"><path d="M25.45-25.55Q25.45-22.95 24.7-20.03 23.95-17.1 22.6-14.23 21.25-11.35 19.28-8.72 17.3-6.1 14.8-4.13 12.3-2.15 9.33-0.95 6.35 0.25 3 0.25L3 0.25Q2.3 0.25 1.6 0.18 0.9 0.1 0.2 0L0.2 0Q1.55-6.9 2.85-13.45L2.85-13.45Q3.35-16.2 3.9-19.18 4.45-22.15 4.95-25.05 5.45-27.95 5.93-30.6 6.4-33.25 6.7-35.4L6.7-35.4Q8.85-35.8 11.05-36.15 13.25-36.5 15.55-36.5L15.55-36.5Q18.25-36.5 20.13-35.65 22-34.8 23.18-33.3 24.35-31.8 24.9-29.8 25.45-27.8 25.45-25.55L25.45-25.55ZM13.65-29.45Q13.1-26.5 12.5-23.8 11.9-21.1 11.3-18.35 10.7-15.6 10.1-12.6 9.5-9.6 8.95-6.05L8.95-6.05Q10.15-6.85 11.28-8.22 12.4-9.6 13.4-11.4 14.4-13.2 15.23-15.2 16.05-17.2 16.65-19.1 17.25-21 17.57-22.65 17.9-24.3 17.9-25.5L17.9-25.5Q17.9-27.35 16.88-28.4 15.85-29.45 13.65-29.45L13.65-29.45ZM38.6-2.45L22.45 0.05 29-35.5 44.8-36.85Q44.45-35.75 44.2-34.6L44.2-34.6Q43.95-33.65 43.72-32.63 43.5-31.6 43.35-30.8L43.35-30.8Q42.85-30.75 41.92-30.73 41-30.7 39.95-30.68 38.9-30.65 37.82-30.65 36.75-30.65 35.95-30.65L35.95-30.65 34.2-21.7Q35.75-21.8 37.1-21.85L37.1-21.85Q38.2-21.9 39.35-21.9 40.5-21.9 41.05-21.95L41.05-21.95Q40.85-20.55 40.67-19.2 40.5-17.85 40.25-16.45L40.25-16.45Q39.75-16.4 38.62-16.38 37.5-16.35 36.35-16.3L36.35-16.3Q35.05-16.25 33.5-16.2L33.5-16.2 31.8-7 39.1-8.15 38.6-2.45ZM54.99-1.5L42.05 0.45Q42.7-6.55 43.24-13.3L43.24-13.3Q43.49-16.1 43.72-19.2 43.95-22.3 44.12-25.33 44.3-28.35 44.39-31.18 44.49-34 44.55-36.35L44.55-36.35Q45.74-36.35 47.12-36.4 48.49-36.45 49.62-36.5 50.74-36.55 51.55-36.63 52.34-36.7 52.34-36.7L52.34-36.7Q51.8-30.9 51.39-27.18 50.99-23.45 50.77-21.13 50.55-18.8 50.37-16.65 50.2-14.5 49.99-12.65 49.8-10.8 49.64-9.5L49.64-9.5 50.55-9.5 56.14-36.1Q57.5-36.15 58.89-36.25L58.89-36.25Q60.14-36.35 61.52-36.4 62.89-36.45 64.05-36.6L64.05-36.6Q63.34-34.4 62.62-31.75 61.89-29.1 61.12-26.25 60.34-23.4 59.62-20.45 58.89-17.5 58.2-14.75L58.2-14.75Q56.59-8.3 54.99-1.5L54.99-1.5ZM86.04-27.05Q86.04-22.95 85.17-19.33 84.29-15.7 82.84-12.68 81.39-9.65 79.47-7.28 77.54-4.9 75.44-3.23 73.34-1.55 71.19-0.68 69.04 0.2 67.09 0.2L67.09 0.2Q65.44 0.2 64.09-0.43 62.74-1.05 61.74-2.27 60.74-3.5 60.17-5.43 59.59-7.35 59.59-10.05L59.59-10.05Q59.59-12.85 60.29-15.95 60.99-19.05 62.19-22.1 63.39-25.15 65.14-27.9 66.89-30.65 68.99-32.77 71.09-34.9 73.49-36.15 75.89-37.4 78.49-37.4L78.49-37.4Q80.74-37.4 82.22-36.48 83.69-35.55 84.52-34.08 85.34-32.6 85.69-30.75 86.04-28.9 86.04-27.05L86.04-27.05ZM67.04-11.35Q67.04-10.8 67.24-10.2 67.44-9.6 67.79-9.15 68.14-8.7 68.67-8.38 69.19-8.05 69.79-8.05L69.79-8.05Q72.04-8.05 73.79-9.6 75.54-11.15 76.69-13.4 77.84-15.65 78.47-18.2 79.09-20.75 79.09-22.85L79.09-22.85Q79.09-23.45 79.02-24.15 78.94-24.85 78.72-25.45 78.49-26.05 78.02-26.48 77.54-26.9 76.74-26.9L76.74-26.9Q75.14-26.9 73.79-26.1 72.44-25.3 71.37-23.98 70.29-22.65 69.49-20.98 68.69-19.3 68.12-17.57 67.54-15.85 67.29-14.2 67.04-12.55 67.04-11.35L67.04-11.35ZM91.19-1.65L82.54 0.05Q84.04-6.7 85.39-13.15L85.39-13.15Q85.94-15.85 86.54-18.85 87.14-21.85 87.69-24.75 88.24-27.65 88.74-30.35 89.24-33.05 89.59-35.3L89.59-35.3Q91.04-35.75 92.44-36.08 93.84-36.4 95.32-36.65 96.79-36.9 98.09-36.9L98.09-36.9Q100.34-36.9 101.87-36.15 103.39-35.4 104.34-34.13 105.29-32.85 105.69-31.15 106.09-29.45 106.09-27.5L106.09-27.5Q106.09-24.7 105.07-22.1 104.04-19.5 102.32-17.48 100.59-15.45 98.37-14.25 96.14-13.05 93.74-13.05L93.74-13.05 93.19-13.05Q92.79-11.35 92.44-9.35 92.09-7.35 91.84-5.65L91.84-5.65Q91.49-3.65 91.19-1.65L91.19-1.65ZM96.49-30.85Q95.94-27.55 95.39-24.6 94.84-21.65 94.19-18.3L94.19-18.3Q94.99-18.5 95.87-19.23 96.74-19.95 97.49-21.13 98.24-22.3 98.69-23.85 99.14-25.4 99.14-27.1L99.14-27.1Q99.14-28.95 98.32-29.9 97.49-30.85 96.49-30.85L96.49-30.85ZM123.79-12.35Q123.79-9.55 122.71-7.28 121.64-5 119.81-3.35 117.99-1.7 115.51-0.8 113.04 0.1 110.19 0.1L110.19 0.1Q108.19 0.1 106.19-0.98 104.19-2.05 102.34-4.4L102.34-4.4 106.04-11.65Q106.39-11 107.09-10.33 107.79-9.65 108.66-9.15 109.54-8.65 110.41-8.33 111.29-8 111.99-8L111.99-8Q112.59-8 113.24-8.2 113.89-8.4 114.44-8.8 114.99-9.2 115.31-9.73 115.64-10.25 115.64-10.95L115.64-10.95Q115.64-12.15 114.86-13.18 114.09-14.2 112.94-15.13 111.79-16.05 110.44-17 109.09-17.95 107.96-19 106.84-20.05 106.04-21.35 105.24-22.65 105.24-24.25L105.24-24.25Q105.24-26.85 106.79-29.1 108.34-31.35 110.66-32.98 112.99-34.6 115.74-35.55 118.49-36.5 120.94-36.5L120.94-36.5Q122.29-36.5 123.49-36.18 124.69-35.85 125.56-35.13 126.44-34.4 126.96-33.3 127.49-32.2 127.49-30.55L127.49-30.55Q127.49-29.85 127.36-29.15 127.24-28.45 127.14-27.65L127.14-27.65 119.89-25.55Q119.99-25.95 120.06-26.35 120.14-26.75 120.14-27.15L120.14-27.15Q120.14-28.65 119.61-29.33 119.09-30 118.24-30L118.24-30Q117.84-30 117.26-29.7 116.69-29.4 116.11-28.93 115.54-28.45 115.14-27.8 114.74-27.15 114.74-26.4L114.74-26.4Q114.74-25.2 115.41-24.4 116.09-23.6 117.09-22.9 118.09-22.2 119.26-21.48 120.44-20.75 121.44-19.6 122.44-18.45 123.11-16.73 123.79-15 123.79-12.35L123.79-12.35Z" opacity="1" transform="matrix(1,0,0,1,0,0)" fill="#5e1914" class="undefined-text-0" data-fill-palette-color="primary" id="text-0"></path></svg></g></svg></g></svg></g></svg></g><g transform="matrix(1,0,0,1,42.675612092423705,0)"><svg viewBox="0 0 106.64877581515259 78.89450432050276" height="78.89450432050276" width="106.64877581515259"><g><svg xmlns="http://www.w3.org/2000/svg" xmlns:xlink="http://www.w3.org/1999/xlink" version="1.1" x="0" y="0" viewBox="0 13.012999534606934 100 73.97600555419922" enable-background="new 0 0 100 100" xml:space="preserve" height="78.89450432050276" width="106.64877581515259" class="icon-icon-0" data-fill-palette-color="accent" id="icon-0"><g fill="#ed2647" data-fill-palette-color="accent"><g fill="#ed2647" data-fill-palette-color="accent"><rect x="0" y="84.313" width="71.072" height="2.676" fill="#ed2647" data-fill-palette-color="accent"></rect><polygon points="59.893,71.706 11.186,71.706 0,83.359 71.072,83.359   " fill="#ed2647" data-fill-palette-color="accent"></polygon></g><path d="M74.212 77.734c-3.25-3.688-1.835-5.599 1.388-5.994 3.223-0.393 6.09 2.221 8.168 4.441 2.078 2.224 3.419 5.918 0.245 6.21C78.896 82.858 75.538 79.24 74.212 77.734z" fill="#ed2647" data-fill-palette-color="accent"></path><path d="M74.123 15.43v51.292H100V15.43H74.123zM77.221 19.057H96.9v2.486h-19.68V19.057zM96.158 22.759v1.061h-3.221v-1.061H96.158zM77.563 63.504h-0.686v-5.321h0.686V63.504zM79.751 63.504h-0.688v-5.321h0.688V63.504zM81.935 63.504H81.25v-5.321h0.685V63.504zM84.124 63.504h-0.688v-5.321h0.688V63.504zM84.863 32.338h11.295v1.062H84.863V32.338zM86.31 63.506h-0.688v-5.32h0.688V63.506zM88.496 63.506h-0.686v-5.32h0.686V63.506zM90.683 63.506h-0.688v-5.32h0.688V63.506zM92.871 63.506h-0.69v-5.323h0.69V63.506zM93.014 43.235h3.574v3.573h-3.574V43.235zM95.056 63.506H94.37v-5.32h0.686V63.506zM97.244 63.506h-0.688v-5.32h0.688V63.506z" fill="#ed2647" data-fill-palette-color="accent"></path><path d="M65.073 53.479V13.013H6.001v40.466h25.801v7.001c-5.249 0.216-9.063 0.87-9.063 1.646v2.877c0 0.948 5.731 1.72 12.802 1.72 7.066 0 12.797-0.771 12.797-1.72v-2.877c0-0.775-3.82-1.43-9.063-1.646v-7.001H65.073zM59.283 51.906c-0.592 0-1.076-0.481-1.076-1.074 0-0.593 0.484-1.075 1.076-1.075 0.595 0 1.073 0.481 1.073 1.075C60.356 51.425 59.878 51.906 59.283 51.906zM10.707 16.812h49.654v31.345H10.707V16.812z" fill="#ed2647" data-fill-palette-color="accent"></path></g></svg></g></svg></g><g></g></svg></g></svg></g></svg></g></svg></g><defs></defs></svg><rect width="320" height="360" fill="none" stroke="none" visibility="hidden"></rect></g></svg></g></svg>